<svg width="100%" viewBox="0 0 680 620" xmlns="http://www.w3.org/2000/svg">
<title>AI Knowledge Base on GCP Architecture</title>
<defs>
<marker id="arrow" viewBox="0 0 10 10" refX="8" refY="5" markerWidth="6" markerHeight="6" orient="auto-start-reverse">
<path d="M2 1L8 5L2 9" fill="none" stroke="#0F6E56" stroke-width="1.5" stroke-linecap="round" stroke-linejoin="round"/>
</marker>
</defs>
<rect x="40" y="40" width="100" height="44" rx="8" fill="#E1F5EE" stroke="#0F6E56" stroke-width="0.5"/>
<text font-family="sans-serif" font-size="13" font-weight="500" x="90" y="67" text-anchor="middle" fill="#085041">Developer</text>
<rect x="180" y="40" width="100" height="44" rx="8" fill="#E1F5EE" stroke="#0F6E56" stroke-width="0.5"/>
<text font-family="sans-serif" font-size="13" font-weight="500" x="230" y="58" text-anchor="middle" fill="#085041">GitHub</text>
<text font-family="sans-serif" font-size="11" x="230" y="75" text-anchor="middle" fill="#0F6E56">git push</text>
<line x1="140" y1="62" x2="178" y2="62" stroke="#0F6E56" stroke-width="1.5" marker-end="url(#arrow)"/>
<rect x="330" y="40" width="120" height="44" rx="8" fill="#E1F5EE" stroke="#0F6E56" stroke-width="0.5"/>
<text font-family="sans-serif" font-size="13" font-weight="500" x="390" y="58" text-anchor="middle" fill="#085041">Cloud Build</text>
<text font-family="sans-serif" font-size="11" x="390" y="75" text-anchor="middle" fill="#0F6E56">CI/CD pipeline</text>
<line x1="280" y1="62" x2="328" y2="62" stroke="#0F6E56" stroke-width="1.5" marker-end="url(#arrow)"/>
<rect x="500" y="40" width="140" height="44" rx="8" fill="#E1F5EE" stroke="#0F6E56" stroke-width="0.5"/>
<text font-family="sans-serif" font-size="13" font-weight="500" x="570" y="58" text-anchor="middle" fill="#085041">Artifact Registry</text>
<text font-family="sans-serif" font-size="11" x="570" y="75" text-anchor="middle" fill="#0F6E56">Docker images</text>
<line x1="450" y1="62" x2="498" y2="62" stroke="#0F6E56" stroke-width="1.5" marker-end="url(#arrow)"/>
<rect x="40" y="140" width="600" height="260" rx="16" fill="#E6F1FB" stroke="#185FA5" stroke-width="0.5"/>
<text font-family="sans-serif" font-size="13" font-weight="500" x="340" y="168" text-anchor="middle" fill="#0C447C">GKE Cluster — ai-knowledge-base-gcp-cluster</text>
<text font-family="sans-serif" font-size="11" x="340" y="185" text-anchor="middle" fill="#185FA5">3 nodes · us-central1 · Kubernetes v1.35</text>
<rect x="70" y="205" width="240" height="56" rx="8" fill="#EEEDFE" stroke="#534AB7" stroke-width="0.5"/>
<text font-family="sans-serif" font-size="13" font-weight="500" x="190" y="228" text-anchor="middle" fill="#3C3489">Frontend pod</text>
<text font-family="sans-serif" font-size="11" x="190" y="248" text-anchor="middle" fill="#534AB7">Next.js · port 3000</text>
<rect x="370" y="205" width="240" height="56" rx="8" fill="#EEEDFE" stroke="#534AB7" stroke-width="0.5"/>
<text font-family="sans-serif" font-size="13" font-weight="500" x="490" y="228" text-anchor="middle" fill="#3C3489">Backend pod</text>
<text font-family="sans-serif" font-size="11" x="490" y="248" text-anchor="middle" fill="#534AB7">FastAPI · port 8080</text>
<line x1="310" y1="233" x2="368" y2="233" stroke="#534AB7" stroke-width="1.5" marker-end="url(#arrow)"/>
<rect x="70" y="300" width="240" height="44" rx="8" fill="#E1F5EE" stroke="#0F6E56" stroke-width="0.5"/>
<text font-family="sans-serif" font-size="13" font-weight="500" x="190" y="318" text-anchor="middle" fill="#085041">Load Balancer</text>
<text font-family="sans-serif" font-size="11" x="190" y="335" text-anchor="middle" fill="#0F6E56">34.55.52.205 static IP</text>
<line x1="190" y1="300" x2="190" y2="263" stroke="#0F6E56" stroke-width="1.5" marker-end="url(#arrow)"/>
<rect x="370" y="300" width="240" height="44" rx="8" fill="#E6F1FB" stroke="#185FA5" stroke-width="0.5"/>
<text font-family="sans-serif" font-size="13" font-weight="500" x="490" y="318" text-anchor="middle" fill="#0C447C">Node pool</text>
<text font-family="sans-serif" font-size="11" x="490" y="335" text-anchor="middle" fill="#185FA5">e2-medium · pd-standard</text>
<text font-family="sans-serif" font-size="11" x="340" y="440" text-anchor="middle" fill="#888780">GCP managed services</text>
<rect x="40" y="455" width="130" height="56" rx="8" fill="#FAEEDA" stroke="#854F0B" stroke-width="0.5"/>
<text font-family="sans-serif" font-size="13" font-weight="500" x="105" y="475" text-anchor="middle" fill="#633806">Vertex AI</text>
<text font-family="sans-serif" font-size="11" x="105" y="495" text-anchor="middle" fill="#854F0B">Gemini · embeddings</text>
<rect x="190" y="455" width="130" height="56" rx="8" fill="#FAEEDA" stroke="#854F0B" stroke-width="0.5"/>
<text font-family="sans-serif" font-size="13" font-weight="500" x="255" y="475" text-anchor="middle" fill="#633806">Cloud Storage</text>
<text font-family="sans-serif" font-size="11" x="255" y="495" text-anchor="middle" fill="#854F0B">Document uploads</text>
<rect x="340" y="455" width="130" height="56" rx="8" fill="#FAEEDA" stroke="#854F0B" stroke-width="0.5"/>
<text font-family="sans-serif" font-size="13" font-weight="500" x="405" y="475" text-anchor="middle" fill="#633806">Cloud SQL</text>
<text font-family="sans-serif" font-size="11" x="405" y="495" text-anchor="middle" fill="#854F0B">PostgreSQL + pgvector</text>
<rect x="490" y="455" width="150" height="56" rx="8" fill="#FAEEDA" stroke="#854F0B" stroke-width="0.5"/>
<text font-family="sans-serif" font-size="13" font-weight="500" x="565" y="475" text-anchor="middle" fill="#633806">Secret Manager</text>
<text font-family="sans-serif" font-size="11" x="565" y="495" text-anchor="middle" fill="#854F0B">API keys</text>
<line x1="490" y1="261" x2="105" y2="453" stroke="#BA7517" stroke-width="1" marker-end="url(#arrow)"/>
<line x1="490" y1="261" x2="255" y2="453" stroke="#BA7517" stroke-width="1" marker-end="url(#arrow)"/>
<line x1="490" y1="261" x2="405" y2="453" stroke="#BA7517" stroke-width="1" marker-end="url(#arrow)"/>
<line x1="490" y1="261" x2="565" y2="453" stroke="#BA7517" stroke-width="1" marker-end="url(#arrow)"/>
<rect x="40" y="545" width="130" height="44" rx="8" fill="#F1EFE8" stroke="#5F5E5A" stroke-width="0.5"/>
<text font-family="sans-serif" font-size="13" font-weight="500" x="105" y="563" text-anchor="middle" fill="#2C2C2A">Terraform</text>
<text font-family="sans-serif" font-size="11" x="105" y="580" text-anchor="middle" fill="#5F5E5A">Infrastructure as code</text>
<rect x="190" y="545" width="130" height="44" rx="8" fill="#F1EFE8" stroke="#5F5E5A" stroke-width="0.5"/>
<text font-family="sans-serif" font-size="13" font-weight="500" x="255" y="563" text-anchor="middle" fill="#2C2C2A">IAM</text>
<text font-family="sans-serif" font-size="11" x="255" y="580" text-anchor="middle" fill="#5F5E5A">Roles and accounts</text>
<rect x="340" y="545" width="130" height="44" rx="8" fill="#F1EFE8" stroke="#5F5E5A" stroke-width="0.5"/>
<text font-family="sans-serif" font-size="13" font-weight="500" x="405" y="563" text-anchor="middle" fill="#2C2C2A">VPC + Firewall</text>
<text font-family="sans-serif" font-size="11" x="405" y="580" text-anchor="middle" fill="#5F5E5A">Private networking</text>
<rect x="490" y="545" width="150" height="44" rx="8" fill="#F1EFE8" stroke="#5F5E5A" stroke-width="0.5"/>
<text font-family="sans-serif" font-size="13" font-weight="500" x="565" y="563" text-anchor="middle" fill="#2C2C2A">Cloud Monitoring</text>
<text font-family="sans-serif" font-size="11" x="565" y="580" text-anchor="middle" fill="#5F5E5A">Alerts and dashboards</text>
<line x1="390" y1="84" x2="390" y2="138" stroke="#0F6E56" stroke-width="1.5" marker-end="url(#arrow)"/>
<line x1="570" y1="84" x2="570" y2="138" stroke="#0F6E56" stroke-width="1.5" marker-end="url(#arrow)"/>
<rect x="40" y="300" width="24" height="44" rx="4" fill="#F1EFE8" stroke="#5F5E5A" stroke-width="0.5"/>
<text font-family="sans-serif" font-size="11" x="52" y="325" text-anchor="middle" fill="#2C2C2A">User</text>
<line x1="64" y1="322" x2="68" y2="322" stroke="#5F5E5A" stroke-width="1.5" marker-end="url(#arrow)"/>
</svg>
